<?xml version="1.0" encoding="UTF-8"?>
<!DOCTYPE svg PUBLIC "-//W3C//DTD SVG 1.1//EN" "http://www.w3.org/Graphics/SVG/1.1/DTD/svg11.dtd">
<!-- Creator: CorelDRAW -->
<svg xmlns="http://www.w3.org/2000/svg" xml:space="preserve" width="6502.89mm" height="729.357mm" version="1.1" style="shape-rendering:geometricPrecision; text-rendering:geometricPrecision; image-rendering:optimizeQuality; fill-rule:evenodd; clip-rule:evenodd"
viewBox="0 0 630730.37 70742.05"
 xmlns:xlink="http://www.w3.org/1999/xlink"
 xmlns:xodm="http://www.corel.com/coreldraw/odm/2003">

 <g id="Слой_x0020_1">
  <metadata id="CorelCorpID_0Corel-Layer"/>
  <g id="_2573119403280">
   <g id="_2078602869136">
    <path class="fil0" d="M395010.06 271.62c-2231.12,341.49 -4451.57,211.79 -6632.05,796.21 -3438.7,921.74 -4976.78,1445.63 -8025.16,3121.77 -772.8,424.93 -1663.09,826.47 -2484.2,1324.76 -2391.75,1451.82 -6263.91,4842.88 -7910,6950.97 -1190.71,1524.87 -2463.99,2888.9 -3216.06,4301.1 -2129.3,3999.36 -3359.28,5981.76 -4346.55,10603.14 -1396.31,6535.91 -970.88,13414.14 1091.41,19663.55 608.31,1842.99 1561.14,3384.72 2396.13,5076.4 1243.19,2519.33 4321.82,6719.46 6457.15,8546.37 3688.96,3156.02 4065.41,3667.88 8834.06,6165.3 5594.28,2929.87 12093.25,3889.72 18460.5,3412.47 3664.55,-274.64 3057.07,-195.24 6336.15,-1220.44 4097.48,-1281.14 7175.28,-2509.63 10141.26,-4729.86 1473.22,-1102.78 3026.67,-2101.74 4212.16,-3293.45 2991.88,-3007.43 4166.03,-4626.24 6532.57,-8317.37 1542.92,-2406.32 3438.52,-7925.55 4053.03,-10995.48 519.72,-2595.87 487.97,-4198.8 -1156.27,-5751.06 -1307.54,-1234.32 -3654.18,-1667.12 -5324.3,-123.03 -2034.88,1881.59 -2103.58,5401.85 -3104.55,8103.55 -1232.48,3326.35 -1780.45,4452.23 -3932.86,7371.7 -3924.16,5322.63 -10860.59,9927.97 -19315.7,10456.87 -7751.35,484.77 -16384.47,-2897.1 -21131.24,-8662.06 -1288.17,-1564.65 -2167.79,-2488.23 -3113.9,-4235.92 -3311.5,-6117.16 -4337.9,-10997.62 -3276.9,-18453.6 509.49,-3580.65 2739.3,-8257.85 4475.47,-10581.91 4769,-6384.46 10966.4,-10078.26 19027.49,-10877.81 4943.19,-490.3 9074.44,197.6 12896.63,1979.89 1737.18,810.08 3256.83,1616.31 4697.8,2644.69 679.02,484.59 1390.29,1130.85 2020.83,1669.63 5462.39,4667.18 5758.28,9336.21 10002.86,8829.22 1925.21,-230.02 3572.93,-1711.09 3707.19,-3711.54 138.57,-2067.64 -1408.17,-3879.01 -2295.33,-5213.31 -4041.17,-6078.73 -10193.43,-10502.37 -16958.17,-13026.67 -3179.6,-1186.54 -9519.59,-2375.23 -13119.44,-1824.1l-0.03 0.03z"/>
    <path class="fil0" d="M147487.61 16803.05c795.69,-817.42 1424.41,1165.98 1563.48,1501.63l2981.03 6891.14c1268.93,3070.46 2565.8,6155.6 3940.02,9233.57l3894.08 9262.5c732,1738.15 1351.86,2938.57 2083.85,4584.96 641.25,1442.3 1221.63,3210.04 1850.32,4655.32 709.25,1630.85 1350.85,2945.07 2047.05,4608.85 672,1605.94 1191.37,3177.59 1929.38,4700.47 751.72,1550.78 1393.97,3165.73 2124.13,4525.76 706.61,1316.23 2079.51,2633.66 3991.5,2549.41 1783.13,-78.57 3232.58,-1393.46 3782.25,-2835.92 683.69,-1794.49 -301.73,-3932.86 -924.07,-5275.84 -1384.97,-2988.86 -2486.56,-6204.09 -3949.06,-9223.73 -765.95,-1581.7 -1287.65,-3066.6 -1971.37,-4648.47l-3963.78 -9346.57c-569.84,-1391.62 -1401.84,-3123.12 -2010.15,-4513.06 -682.01,-1558.11 -1231.3,-3114.25 -1908.48,-4721.69 -686.05,-1628.83 -1284.83,-2792.79 -2017.14,-4507.4 -653.6,-1530.04 -1196.73,-3085 -1938.08,-4730.87 -707.44,-1569.98 -1342.33,-2840.44 -1997.77,-4497.52 -1186.54,-2999.27 -2579.5,-6126.04 -3957.76,-9341.91 -715.96,-1670.12 -1115.47,-3123.61 -2381.56,-4278.22 -1129.35,-1029.74 -3009.27,-1656.24 -4861.62,-653.43 -2062.95,1116.83 -3620.58,5872.95 -4654.84,8497.71 -1286.64,3264.86 -2672.44,6067.67 -3905.11,9263.34 -1242.85,3222.91 -2605.55,6396.98 -3863.29,9455.24l-5849.55 13955.11c-727.16,1671.61 -1208.58,3127.3 -1841.14,4644.61 -673.5,1615.96 -1344.48,2943.57 -2035.54,4608.68 -704.28,1696.86 -1178.33,3090.85 -1865.86,4679.57 -992.11,2292.31 -3715.36,7655.73 -2929.87,10084.59 1213.77,3753.14 5771.14,3047.89 10033.11,3047.89 8744.99,0 17599.08,134.89 26329.03,-5.84 2141.52,-34.61 3704.65,-516.7 4663.85,-1928.2 1015.99,-1494.95 949.67,-3575.12 -218.81,-5016.06 -1086.74,-1340.48 -2651.54,-1669.45 -5015.4,-1672.97l-19672.74 -47.96c-3177.76,11.69 -5442.32,559.34 -4922.11,-1582.89 470.57,-1937.95 3115.74,-7556.29 3789.9,-9372.67 605.8,-1632.34 1180.35,-3198.01 1875.41,-4764.47 761.59,-1716.59 1357.18,-3059.26 2035.19,-4648.78 631.86,-1481.38 1157.59,-3187.95 1829.94,-4678.04 1392.48,-3086.01 2570.46,-6201.09 3920.82,-9199.48 729,-1618.64 1318.09,-2981.86 1960.83,-4710.8 458.19,-1232.83 1350.85,-3850.11 2029.88,-4547.5l0.05 -0.1z"/>
    <path class="fil0" d="M606294.01 9012.74c4279.7,-909.22 7624.45,518.37 10127.57,2873.2 3553.73,3342.91 2933.87,6478.24 3853.45,9296.28 1193.04,3656.69 6679.84,3718.71 7837.79,-101.64 1003.3,-3310.01 -726.33,-8171.42 -2083.19,-10601.15 -3193.48,-5719.32 -8957.61,-10007.38 -16073.23,-10306.09 -16418.59,-689.04 -25649.84,15975.42 -18643.7,29162.42 1320.1,2484.72 4078.11,5039.95 6722.97,6596.08 3249.97,1912.17 5792.19,2383.75 9599.52,3542.66 3930.17,1196.06 6206.58,1529.86 9748.62,3572.92 2739.47,1580.2 4911.74,4288.23 4630.73,8575.8 -241.05,3675.57 -2132.66,6397.33 -5014.56,8171.6 -6018.7,3705.51 -14428.02,2706.05 -19859.97,-2301 -3075.96,-2835.57 -2977,-6321.1 -4010.74,-9118.93 -1428.24,-3865.62 -6065.82,-3835.88 -7697.33,-334.99 -1266.78,2718.39 949.32,8440.56 1932.23,10429.46 2214.08,4479.95 5888.81,7589.72 10348.07,9655.83 1606.78,744.73 2850.63,1315.92 4707.33,1793 7037.23,1808.55 15599.67,36.93 21129.38,-4135.61 8206.2,-6192.22 10056.04,-19335.59 1990.56,-27353.89 -1916.35,-1905.32 -5156.65,-3898.07 -8187.83,-4998.35 -4649.62,-1688.03 -11721.27,-3006.25 -14884.02,-5048.65 -1301.04,-840 -2623.47,-1745.35 -3456.76,-3061.11 -3280.72,-5180.55 -748.56,-14601.69 7283.11,-16307.91l0 0.05z"/>
    <path class="fil0" d="M22090.97 8887.7c4207.32,-646.4 7538.38,990.78 9653.33,3293.45 3542.35,3856.61 2729.59,7214.59 3763.67,9416.63 1625.15,3460.44 6895.8,2999.75 7735.96,-870.57 817.77,-3767.02 -1101.45,-8242.83 -2441.94,-10655.79 -2906.1,-5231.21 -8802.78,-9723.7 -16511.17,-9887.69 -6061.17,-128.87 -10436.14,1968.87 -14314.5,5563.35 -890.16,824.94 -2258.05,2349.8 -2956.09,3561.24 -1789.97,3106.22 -3018.94,6084.57 -3048.9,10325.32 -29.6,4209.34 973.87,7462.48 2823.37,10436.49 1643.89,2643.2 4405.06,4827.01 6941.93,6210.59 1676.31,914.22 2751.01,1367.72 4713.34,1958.81 1601.91,482.6 3326.04,1004.13 5019.39,1499.96 3601.52,1054.8 6244.88,1585.86 9477.99,3654.66 3292.44,2107.09 4473.62,5226.87 3933.69,9192.28 -1085.38,7971.84 -9715,10164.53 -16675.85,9105.05 -3118.43,-474.57 -6877.26,-2705.21 -8589.33,-4756.3 -3446.04,-4128.58 -2607.4,-7129.34 -3782.57,-9356.8 -2447.26,-4638.59 -12638.85,-2301.67 -5102.14,11583.06 2871.54,5290.04 8838.41,9477.81 15432.34,10889.01 3750.14,802.71 8380.88,596.28 12160.94,-252.24 2727.92,-612.31 6871.91,-2901.94 8743.98,-4389.03 5517.54,-4383.02 7640.17,-12614.64 5851.34,-19443.07 -1517.67,-5792.84 -4510.73,-8234.96 -8900.9,-10892.51 -1837.1,-1111.96 -7272.78,-2949.42 -9597.01,-3577.14 -1647.37,-444.84 -3487.53,-928.41 -5124.72,-1395.48 -2798.99,-798.36 -6414.39,-2955.78 -7675.63,-5446.52 -1751.37,-3458.43 -1231.82,-7331.94 555.13,-10471.76 878.43,-1543.57 1829.94,-2416.17 3198.67,-3440.23 1497.63,-1120.66 2756.86,-1553.77 4715.67,-1854.84l0 0.06z"/>
    <path class="fil0" d="M195781.85 5339.01c790.36,3047.54 3654.53,3374.84 6130.21,3375.01l19672.9 0.17c3045.04,-0.35 6108.3,-52.48 8528.5,1249.7 1884.59,1013.84 4133.45,2889.25 5149.28,4759.95 2482.04,4570.74 2142.36,10913.74 -1582.89,14739.78 -4454.38,4574.73 -9732.56,4022.77 -15774.84,3926.32 -3274.73,-52.14 -6496.95,21.22 -9765.67,15.86 -2867.33,-4.52 -6751.55,-450.67 -8842.08,1028.24 -2223.26,1572.83 -1802.19,4808.61 -1782.95,7986.05 39.45,6556.95 -38.29,13119.13 -0.83,19672.91 38.29,6703.56 5409.72,6591.39 7490.57,4084.47 776.66,-935.62 1052.44,-2118.12 1117.98,-3654.35 125.35,-2937.21 -282.16,-18320.22 152.1,-19581.3 461.88,-1340.97 2624.13,-954.15 3988.16,-940.97 1656.24,15.9 3299.47,-33.25 4953.72,-46.64 8329.89,-67.69 14396.58,929.42 21027.27,-3561.89 5402.21,-3659.19 8044.04,-8041.71 9254.3,-15090.15 925.73,-5390.66 -1689.01,-11843.51 -4301.27,-15071.92 -3028.48,-3742.6 -6600.61,-6360.88 -12047.79,-7599.39 -3701,-841.67 -14724.23,-539.09 -19169.27,-539.09 -3045.56,0.17 -6742.03,-191.58 -9700.45,42.12 -1681.31,132.91 -2611.43,471.75 -3515.08,1470.19 -806.05,890.33 -1359.02,2280.62 -981.91,3734.94l0.04 -0.02z"/>
    <path class="fil0" d="M269166.74 63932.98c514.19,4856.44 4959.88,4278.7 9455.24,4278.57 4576.26,-0.35 9152.34,-0.17 13728.58,-0.17 4502.87,0 9261.01,147.61 13732.93,-26.93 2281.59,-88.94 3720.05,-827.48 4461.24,-2467.16 944.31,-2089.04 103.97,-3885.38 -1152.76,-4962.07 -1473.39,-1262.26 -3737.59,-1122.5 -5860.58,-1122.33 -2264.9,0.17 -4528.79,21.39 -6793.51,2.33 -4576.75,-38.61 -9153.85,12.04 -13728.43,11.55 -2785.59,-0.31 -5124.89,526.57 -5307.26,-1515.33 -218.81,-2451.43 18.54,-17048.47 6.68,-20381.85 -13.36,-3738.29 255.58,-32056.01 -236.21,-34195.69 -915.71,-3984.16 -6210.27,-4535.47 -7880.4,-732.18 -713.94,1625.83 -502.82,4348.23 -501.66,6338.66l0.17 41185.61c0.17,2264.72 10.54,4528.26 10.37,6793.51 0,2048.06 -142.92,4824.82 65.53,6793.51l0.06 -0.04z"/>
    <path class="fil0" d="M462549.56 64357.57c289.05,-2653.87 52.66,-6772.43 52.66,-9624.25l0 -48403.7c-5.67,-1547.58 -114.85,-2914.49 -754.75,-4059.23 -1905.67,-3408.61 -7474.51,-2470.67 -7923.69,2376.23 -264.28,2850.81 -59.03,6788.47 -59.03,9750.26l10.05 48403.7c4.35,2918.66 808.91,5481.62 3545.34,6084.88 3212.03,708.1 4826.66,-1749.7 5129.37,-4527.95l0.05 0.05z"/>
    <path class="fil0" d="M333418.84 385.47c-2812.87,975.23 -3200.65,2973.83 -3228.58,6368.75l2.02 29014c55.83,6355.04 98.29,12900.79 -17.57,19248.32 -52.14,2857.49 -207.96,6778.14 74.71,9551.34 535.93,5261.14 6162.14,5727.01 7978.69,2084.51 667.65,-1338.64 563.68,-2737.8 566.37,-4276.37l11.2 -48262.14c0.17,-3010.43 189.88,-6702.55 -60.87,-9632.11 -213.46,-2493.07 -2460.48,-5089.94 -5325.97,-4096.34l0 0.04z"/>
    <path class="fil0" d="M498729.17 357.75c-2936.06,617.67 -3398.91,2983.68 -3425.66,6255.08 -26.27,3193.98 -74.23,6434.28 -57.01,9624.08l65.35 38638.06c0,2910.63 -237.87,6764.92 43.62,9554.89 269.29,2667.26 2021.83,5203.12 5098.45,4480.78 1191.37,-279.82 2139.85,-1080.03 2709.69,-2082.53 724.31,-1273.77 691.72,-2369.52 694.88,-4168.9l-0.66 -29013.99c0,-6409.37 80.24,-12844.31 33.6,-19248.33 -22.89,-3147.33 94.43,-6514.83 -62.68,-9629.6 -138.4,-2745.48 -2241,-5010.87 -5099.63,-4409.58l0.05 0.04z"/>
    <path class="fil0" d="M84592.88 66480.55c604.97,5219.32 7256.71,5848.02 8465.65,655.78 406.88,-1747.69 193.25,-5814.94 204.1,-7873.89 21.22,-4047.19 135.9,-38515.52 -82.57,-40292.63 -706.92,-5750.59 -7425.37,-5523.39 -8464.46,-744.2 -377.12,1734.99 -183.55,5897.86 -170.15,7918.51 31.1,4701.97 -173.35,38432.26 47.48,40336.42l-0.04 0z"/>
    <path class="fil0" d="M547395.48 14789.07c-2515.47,510.01 -3279.57,1978.36 -3530.63,4638.42 -219.16,2322.08 -67.37,5497.17 -67.37,7990.37 0,5380.3 32.59,10755.79 32.59,16134.58 0,5363.74 -97.78,10782.68 -27.93,16134.56 22.74,1728.62 -75.24,6390.31 291.86,7859.17 1049.11,4197.8 7894.45,4814.28 8312.01,-1528.86 161.14,-2449.28 101.29,-5541.62 64.87,-8028.67 -78.4,-5356.58 -85.92,-10777.01 -34.92,-16134.56 51.16,-5377.6 -4,-10754.74 -5,-16134.55 -0.52,-1988.06 200.59,-6186.87 -177.7,-7860.18 -437.8,-1936.59 -2374.22,-3573.94 -4857.75,-3070.28l-0.02 0z"/>
    <path class="fil0" d="M527543.55 163.31c-5396.36,898.67 -5228.36,6245.06 -1752.38,7943.25 2169.77,1060 10846.53,596.59 13956.08,596.59l21795.72 8.53c4252.96,-40.63 10176.56,1002.81 11340.67,-3200.51 600.14,-2166.43 -566.5,-4105.2 -2255.54,-4870.63 -2139.33,-969.53 -10941.15,-550.64 -14038.67,-549.81l-21795.9 -7.86c-1894.6,-15.55 -5596.95,-195.09 -7250.02,80.42l0.04 0.03z"/>
    <path class="fil0" d="M76515.24 8714.2l30712.35 9.53c1570.33,17.57 3218.88,-42.3 4362.45,-726.81 2629.67,-1574.01 2650.35,-5219.15 469.39,-6925.58 -1492.1,-1167.3 -3963.92,-992.62 -5964.05,-978.58l-33684.52 -11.86c-2306.85,0.17 -4748.26,-238.54 -6419.22,810.75 -3010.28,1890.12 -2678.95,7640.18 3158.39,7806.52 2412.83,68.7 4940.68,16.07 7365.19,16.07l0 -0.04z"/>
    <path class="fil0" d="M469867.8 30379.53c-2574.63,355.06 -4557.03,1561.31 -4566.56,4398.74 -8.7,2634.15 2252.2,3891.58 4814.14,4058.38l17948.12 -18.05c6190.21,-556.66 5645.61,-8274.58 -396.35,-8502.93 -2272.59,-85.74 -16252.44,-149.43 -17799.36,63.86l0.01 0z"/>
    <path class="fil0" d="M394089.46 29894.77c-2345.62,388.66 -4223.53,2125.01 -3874.17,4714.18 343.17,2542.39 2263.23,3531.5 5066.7,3693.45 2148.72,124.21 15784.89,192.06 17348.36,-38.26 5365.44,-790.19 5636.23,-8263.87 -1251.72,-8485.37 -2259.54,-72.56 -15857.07,-121.36 -17289.17,116z"/>
    <path class="fil0" d="M226234.1 51053.58c246.22,1911.16 6048.47,9652.98 7776.25,11776.98 1419.54,1745 2561.28,4169.69 4941.52,4800.75 2719.4,721.15 5247.61,-1646.88 5025.27,-4412.61 -176.69,-2198.85 -2345.62,-4585.27 -3550.05,-6236.68 -1529.04,-2096.9 -2753.35,-3726.21 -4112.02,-5659.8 -1322.61,-1882.25 -2686.32,-4134.1 -5036.47,-4763.15 -2564.93,-686.54 -5383.33,1863.54 -5044.47,4494.53l-0.03 -0.02z"/>
   </g>
  </g>
 </g>
</svg>
