<?xml version="1.0" encoding="UTF-8"?>
<!DOCTYPE svg PUBLIC "-//W3C//DTD SVG 1.1//EN" "http://www.w3.org/Graphics/SVG/1.1/DTD/svg11.dtd">
<!-- Creator: CorelDRAW -->
<svg xmlns="http://www.w3.org/2000/svg" xml:space="preserve" width="6502.89mm" height="729.357mm" version="1.1" style="shape-rendering:geometricPrecision; text-rendering:geometricPrecision; image-rendering:optimizeQuality; fill-rule:evenodd; clip-rule:evenodd"
viewBox="0 0 703902.51 78948.96"
 xmlns:xlink="http://www.w3.org/1999/xlink"
 xmlns:xodm="http://www.corel.com/coreldraw/odm/2003">
 <defs>
  <style type="text/css">
   <![CDATA[
    .fil0 {fill:#FEFEFE}
   ]]>
  </style>
 </defs>
 <g id="Capa_x0020_1">
  <metadata id="CorelCorpID_0Corel-Layer"/>
  <g id="_2608554737760">
   <path class="fil0" d="M440835.87 303.11c-2489.96,381.13 -4967.99,236.36 -7401.43,888.57 -3837.64,1028.66 -5554.14,1613.33 -8956.16,3483.93 -862.45,474.22 -1856.05,922.33 -2772.41,1478.46 -2669.23,1620.24 -6990.62,5404.7 -8827.63,7757.37 -1328.84,1701.76 -2749.83,3224.05 -3589.15,4800.08 -2376.35,4463.34 -3749.03,6675.71 -4850.83,11833.24 -1558.3,7294.15 -1083.52,14970.36 1218.02,21944.75 678.88,2056.78 1742.25,3777.38 2674.09,5665.32 1387.41,2811.59 4823.21,7498.99 7206.28,9537.86 4116.92,3522.17 4537.04,4093.41 9858.91,6880.55 6243.29,3269.76 13496.2,4340.96 20602.12,3808.35 4089.67,-306.51 3411.73,-217.9 7071.22,-1362.04 4572.86,-1429.76 8007.71,-2800.76 11317.78,-5278.6 1644.12,-1230.71 3377.78,-2345.56 4700.83,-3675.52 3338.98,-3356.33 4649.35,-5162.94 7290.42,-9282.27 1721.91,-2685.47 3837.45,-8845 4523.24,-12271.09 580,-2897.02 544.56,-4685.92 -1290.42,-6418.27 -1459.23,-1377.52 -4078.1,-1860.52 -5941.99,-137.3 -2270.95,2099.87 -2347.62,6028.55 -3464.71,9043.67 -1375.47,3712.27 -1987.01,4968.73 -4389.1,8226.92 -4379.4,5940.12 -12120.54,11079.74 -21556.53,11670.01 -8650.6,541.01 -18285.27,-3233.2 -23582.72,-9666.95 -1437.6,-1746.17 -2419.25,-2776.88 -3475.16,-4727.33 -3695.67,-6826.82 -4841.13,-12273.5 -3657.05,-20594.46 568.62,-3996.03 3057.09,-9215.86 4994.65,-11809.56 5322.25,-7125.12 12238.63,-11247.45 21234.92,-12139.74 5516.64,-547.17 10127.19,220.5 14392.78,2209.56 1938.69,904.06 3634.67,1803.81 5242.78,2951.5 757.79,540.82 1551.59,1262.06 2255.28,1863.32 6096.08,5208.64 6426.29,10419.33 11163.31,9853.51 2148.57,-256.7 3987.45,-1909.59 4137.26,-4142.11 154.65,-2307.5 -1571.55,-4329.02 -2561.61,-5818.11 -4509.99,-6783.92 -11375.98,-11720.75 -18925.53,-14537.92 -3548.48,-1324.18 -10623.99,-2650.78 -14641.46,-2035.7z"/>
   <path class="fil0" d="M164597.92 18752.36c888.01,-912.25 1589.65,1301.23 1744.86,1675.83l3326.85 7690.58c1416.14,3426.65 2863.45,6869.73 4397.12,10304.78l4345.82 10337.06c816.92,1939.81 1508.68,3279.46 2325.6,5116.86 715.63,1609.6 1363.35,3582.43 2064.99,5195.39 791.55,1820.03 1507.55,3286.74 2284.56,5143.53 749.96,1792.24 1329.59,3546.24 2153.23,5245.77 838.94,1730.68 1555.69,3532.99 2370.57,5050.81 788.57,1468.94 2320.75,2939.19 4454.58,2845.16 1989.99,-87.68 3607.62,-1555.13 4221.02,-3164.92 763.02,-2002.68 -336.74,-4389.1 -1031.28,-5887.9 -1545.62,-3335.61 -2775.02,-6923.83 -4407.2,-10293.77 -854.8,-1765.19 -1437.04,-3422.37 -2200.06,-5187.75l-4423.61 -10430.9c-635.97,-1553.07 -1564.46,-3485.42 -2243.34,-5036.63 -761.14,-1738.89 -1374.16,-3475.54 -2129.91,-5269.46 -765.62,-1817.79 -1433.87,-3116.78 -2251.17,-5030.29 -729.43,-1707.55 -1335.55,-3442.89 -2162.93,-5279.73 -789.5,-1752.13 -1498.04,-3169.95 -2229.52,-5019.28 -1324.18,-3347.19 -2878.74,-6836.71 -4416.9,-10425.68 -799.02,-1863.87 -1244.89,-3485.98 -2657.86,-4774.53 -1260.38,-1149.18 -3358.38,-1848.39 -5425.61,-729.24 -2302.29,1246.38 -4040.62,6554.27 -5194.84,9483.56 -1435.92,3643.63 -2982.46,6771.61 -4358.13,10338 -1387.05,3596.79 -2907.85,7139.12 -4311.49,10552.15l-6528.15 15574.06c-811.52,1865.55 -1348.8,3490.09 -2054.73,5183.45 -751.63,1803.43 -1500.46,3285.06 -2271.68,5143.35 -785.96,1893.73 -1315.03,3449.42 -2082.34,5222.44 -1107.2,2558.24 -4146.38,8543.88 -3269.76,11254.54 1354.58,4188.56 6440.66,3401.48 11197.09,3401.48 9759.49,0 19640.79,150.55 29383.49,-6.54 2389.96,-38.61 4134.44,-576.64 5204.91,-2151.91 1133.88,-1668.37 1059.82,-3989.87 -244.2,-5597.99 -1212.8,-1495.99 -2959.16,-1863.14 -5597.24,-1867.06l-21955.01 -53.54c-3546.43,13.05 -6073.7,624.21 -5493.14,-1766.5 525.16,-2162.75 3477.22,-8432.89 4229.59,-10460.01 676.08,-1821.71 1317.27,-3569 2092.97,-5317.21 849.95,-1915.74 1514.64,-3414.16 2271.32,-5188.12 705.18,-1653.26 1291.9,-3557.81 2042.23,-5220.76 1554.01,-3444.02 2868.68,-6920.48 4375.67,-10266.74 813.58,-1806.42 1471,-3327.78 2188.3,-5257.33 511.35,-1375.85 1507.55,-4296.76 2265.34,-5075.07z"/>
   <path class="fil0" d="M676631.29 10058.3c4776.2,-1014.68 8509.01,578.51 11302.49,3206.52 3965.99,3730.75 3274.24,7229.79 4300.48,10374.75 1331.45,4080.91 7454.78,4150.12 8747.05,-113.43 1119.71,-3694 -810.58,-9119.41 -2324.85,-11831 -3563.96,-6382.82 -9996.78,-11168.36 -17937.91,-11501.73 -18323.33,-768.98 -28625.51,17828.77 -20806.58,32545.61 1473.23,2772.97 4551.22,5624.66 7502.91,7361.31 3627.03,2134.01 6464.16,2660.28 10713.16,3953.68 4386.11,1334.81 6926.63,1707.36 10879.57,3987.45 3057.27,1763.51 5481.57,4785.72 5167.96,9570.69 -269.01,4101.98 -2380.08,7139.49 -5596.3,9119.59 -6716.94,4135.39 -16101.83,3019.97 -22163.96,-2567.94 -3432.81,-3164.55 -3322.37,-7054.43 -4476.04,-10176.82 -1593.93,-4314.1 -6769.55,-4280.89 -8590.33,-373.86 -1413.73,3033.77 1059.44,9419.76 2156.39,11639.41 2470.93,4999.7 6571.99,8470.2 11548.56,10776.03 1793.18,831.11 3181.34,1468.58 5253.41,2001 7853.63,2018.35 17409.4,41.23 23580.66,-4615.38 9158.21,-6910.59 11222.64,-21578.73 2221.51,-30527.26 -2138.67,-2126.37 -5754.88,-4350.29 -9137.7,-5578.21 -5189.05,-1883.84 -13081.1,-3355.02 -16610.74,-5634.36 -1451.96,-937.45 -2927.81,-1947.84 -3857.79,-3416.22 -3661.34,-5781.55 -835.4,-16295.65 8128.05,-18199.83z"/>
   <path class="fil0" d="M24653.78 9918.75c4695.43,-721.41 8412.93,1105.72 10773.23,3675.53 3953.31,4304.03 3046.27,8051.56 4200.31,10509.06 1813.69,3861.89 7695.8,3347.74 8633.43,-971.58 912.63,-4204.03 -1229.23,-9199.08 -2725.22,-11892.01 -3243.27,-5838.08 -9824.03,-10851.76 -18426.67,-11034.78 -6764.33,-143.84 -11646.87,2197.26 -15975.15,6208.77 -993.41,920.65 -2520,2622.42 -3299.06,3974.39 -1997.64,3466.57 -3369.2,6790.44 -3402.59,11523.18 -33.03,4697.66 1086.87,8328.23 3150.92,11647.24 1834.59,2949.82 4916.12,5386.98 7747.29,6931.1 1870.79,1020.28 3070.15,1526.4 5260.13,2186.06 1787.77,538.59 3711.9,1120.64 5601.72,1673.97 4019.34,1177.17 6969.35,1769.85 10577.53,4078.67 3674.4,2351.54 4992.61,5833.23 4390.03,10258.71 -1211.31,8896.66 -10842.07,11343.71 -18610.44,10161.33 -3480.2,-529.64 -7675.09,-3019.04 -9585.8,-5308.07 -3845.84,-4607.56 -2909.89,-7956.43 -4221.39,-10442.29 -2731.17,-5176.74 -14105.12,-2568.69 -5694.05,12926.83 3204.66,5903.74 9863.76,10577.34 17222.65,12152.25 4185.19,895.84 9353.16,665.44 13571.75,-281.51 3044.4,-683.36 7669.13,-3238.61 9758.36,-4898.21 6157.64,-4891.5 8526.53,-14078.07 6530.2,-21698.69 -1693.73,-6464.91 -5034.02,-9190.31 -9933.54,-12156.17 -2050.25,-1240.97 -8116.49,-3291.6 -10710.36,-3992.11 -1838.5,-496.42 -3892.12,-1036.13 -5719.24,-1557.37 -3123.69,-890.99 -7158.53,-3298.68 -8566.08,-6078.36 -1954.55,-3859.65 -1374.73,-8182.53 619.55,-11686.6 980.35,-1722.66 2042.23,-2696.48 3569.74,-3839.33 1671.36,-1250.67 3076.69,-1734.03 5262.74,-2070.03z"/>
   <path class="fil0" d="M218494.85 5958.36c882.04,3401.1 4078.48,3766.37 6841.38,3766.55l21955.2 0.19c3398.3,-0.38 6816.94,-58.58 9517.9,1394.69 2103.22,1131.46 4612.96,3224.43 5746.66,5312.18 2769.99,5101 2390.91,12179.86 -1766.5,16449.75 -4971.15,5105.47 -10861.66,4489.47 -17604.9,4381.83 -3654.63,-58.2 -7250.67,23.69 -10898.59,17.72 -3199.99,-5.03 -7534.81,-502.95 -9867.88,1147.51 -2481.19,1755.3 -2011.26,5366.46 -1989.81,8912.52 44.03,7317.66 -42.72,14641.09 -0.93,21955.2 42.72,7481.27 6037.32,7356.08 8359.56,4558.31 866.75,-1044.15 1174.56,-2363.84 1247.69,-4078.3 139.92,-3277.97 -314.91,-20445.59 169.76,-21852.97 515.46,-1496.55 2928.56,-1064.86 4450.85,-1050.12 1848.39,17.73 3682.24,-37.12 5528.4,-52.04 9296.27,-75.55 16066.76,1037.25 23466.68,-3975.13 6028.93,-4083.71 8977.25,-8974.65 10327.91,-16840.77 1033.15,-6016.06 -1884.96,-13217.49 -4800.27,-16820.44 -3379.83,-4176.8 -7366.34,-7098.82 -13445.46,-8481.01 -4130.34,-939.3 -16432.4,-601.64 -21393.11,-601.64 -3398.87,0.19 -7524.18,-213.79 -10825.84,47.01 -1876.38,148.32 -2914.38,526.47 -3922.89,1640.76 -899.58,993.6 -1516.7,2545.19 -1095.84,4168.23z"/>
   <path class="fil0" d="M300393.25 71349.92c573.84,5419.83 5535.29,4775.09 10552.15,4774.9 5107.15,-0.38 10214.12,-0.19 15321.28,-0.19 5025.25,0 10335.38,164.74 15326.12,-30.03 2546.3,-99.25 4151.62,-923.46 4978.81,-2753.38 1053.86,-2331.39 116.04,-4336.11 -1286.49,-5537.73 -1644.3,-1408.68 -4171.2,-1252.72 -6540.46,-1252.53 -2527.65,0.18 -5054.18,23.88 -7581.63,2.61 -5107.71,-43.09 -10215.81,13.43 -15321.1,12.87 -3108.76,-0.37 -5719.43,587.65 -5922.96,-1691.13 -244.2,-2735.85 20.71,-19026.27 7.46,-22746.39 -14.92,-4171.95 285.25,-35774.89 -263.6,-38162.79 -1021.96,-4446.38 -6930.74,-5061.63 -8794.62,-817.12 -796.78,1814.44 -561.16,4852.69 -559.85,7074.01l0.18 45963.63c0.18,2527.47 11.76,5053.61 11.57,7581.63 0,2285.68 -159.51,5384.57 73.13,7581.63z"/>
   <path class="fil0" d="M516210.78 71823.77c322.56,-2961.75 58.77,-7558.12 58.77,-10740.76l0 -54019.13c-6.34,-1727.13 -128.16,-3252.6 -842.29,-4530.13 -2126.73,-3804.06 -8341.66,-2757.3 -8842.94,2651.89 -294.94,3181.52 -65.86,7576.02 -65.86,10881.42l11.2 54019.13c4.85,3257.26 902.74,6117.54 3956.66,6790.82 3584.67,790.25 5386.61,-1952.69 5724.46,-5053.24z"/>
   <path class="fil0" d="M372099.35 430.15c-3139.17,1088.37 -3571.98,3318.82 -3603.14,7107.59l2.24 32379.95c62.31,7092.29 109.7,14397.44 -19.59,21481.35 -58.2,3188.98 -232.08,7564.46 83.39,10659.42 598.09,5871.48 6877.01,6391.41 8904.32,2326.36 745.1,-1493.94 629.06,-3055.42 632.05,-4772.47l12.5 -53861.11c0.18,-3359.68 211.92,-7480.14 -67.91,-10749.54 -238.24,-2782.3 -2745.92,-5680.44 -5943.86,-4571.55z"/>
   <path class="fil0" d="M556587.63 399.18c-3276.67,689.32 -3793.24,3329.83 -3823.09,6980.73 -29.29,3564.51 -82.83,7180.72 -63.62,10740.58l72.95 43120.52c0,3248.31 -265.47,7549.73 48.69,10663.35 300.54,2976.68 2256.39,5806.74 5689.95,5000.63 1329.59,-312.3 2388.1,-1205.34 3024.07,-2324.12 808.35,-1421.55 771.97,-2644.43 775.52,-4652.51l-0.75 -32379.95c0,-7152.92 89.55,-14334.39 37.5,-21481.35 -25.56,-3512.47 105.41,-7270.63 -69.96,-10746.73 -154.46,-3063.99 -2500.97,-5592.19 -5691.26,-4921.15z"/>
   <path class="fil0" d="M94406.65 74193.04c675.14,5824.83 8098.58,6526.46 9447.75,731.85 454.09,-1950.44 215.67,-6489.53 227.79,-8787.34 23.69,-4516.71 151.67,-42983.78 -92.16,-44967.06 -788.94,-6417.71 -8286.81,-6164.18 -9446.45,-830.55 -420.87,1936.27 -204.83,6582.07 -189.9,8837.15 34.69,5247.45 -193.47,42890.87 52.97,45015.94z"/>
   <path class="fil0" d="M610899.83 16504.74c-2807.29,569.18 -3660.04,2207.89 -3940.24,5176.55 -244.58,2591.45 -75.19,6134.89 -75.19,8917.37 0,6004.49 36.38,12003.57 36.38,18006.38 0,5986.01 -109.13,12033.6 -31.15,18006.37 25.37,1929.17 -83.95,7131.66 325.73,8770.93 1170.82,4684.79 8810.28,5372.8 9276.3,-1706.25 179.84,-2733.41 113.05,-6184.51 72.38,-8960.09 -87.49,-5977.99 -95.88,-12027.26 -38.99,-18006.37 57.09,-6001.5 -4.47,-12002.44 -5.6,-18006.37 -0.56,-2218.71 223.87,-6904.62 -198.3,-8772.04 -488.59,-2161.25 -2649.65,-3988.56 -5421.32,-3426.47z"/>
   <path class="fil0" d="M588744.83 182.22c-6022.4,1002.92 -5834.91,6969.54 -1955.66,8864.76 2421.5,1182.95 12104.86,665.81 15575.17,665.81l24324.28 9.51c4746.35,-45.33 11357.15,1119.15 12656.32,-3571.8 669.74,-2417.76 -632.23,-4581.44 -2517.19,-5435.67 -2387.54,-1082.02 -12210.46,-614.52 -15667.34,-613.58l-24324.46 -8.77c-2114.42,-17.35 -6246.26,-217.71 -8091.11,89.73z"/>
   <path class="fil0" d="M85391.9 9725.11l34275.34 10.63c1752.51,19.59 3592.32,-47.19 4868.55,-811.14 2934.72,-1756.61 2957.85,-5824.65 523.85,-7729.02 -1665.19,-1302.71 -4423.79,-1107.76 -6655.94,-1092.09l-37592.31 -13.25c-2574.48,0.18 -5299.12,-266.22 -7163.94,904.79 -3359.5,2109.39 -2989.74,8526.54 3524.79,8712.16 2692.75,76.68 5513.85,17.91 8219.66,17.91z"/>
   <path class="fil0" d="M524378.02 33903.87c-2873.33,396.24 -5085.7,1742.43 -5096.34,4909.03 -9.7,2939.75 2513.47,4343.02 5372.62,4529.2l20030.32 -20.14c6908.35,-621.23 6300.56,-9234.52 -442.32,-9489.36 -2536.22,-95.7 -18137.9,-166.77 -19864.28,71.27z"/>
   <path class="fil0" d="M439808.5 33362.85c-2617.75,433.75 -4713.52,2371.51 -4323.61,5261.06 382.99,2837.33 2525.78,3941.18 5654.5,4121.95 2398,138.62 17616.11,214.36 19360.97,-42.71 5987.88,-881.86 6290.1,-9222.58 -1396.94,-9469.76 -2521.68,-80.97 -17696.68,-135.45 -19294.91,129.46z"/>
   <path class="fil0" d="M252479.92 56976.36c274.79,2132.89 6750.15,10772.85 8678.39,13143.24 1584.23,1947.45 2858.41,4653.44 5514.78,5357.69 3034.9,804.8 5856.37,-1837.95 5608.25,-4924.52 -197.19,-2453.95 -2617.75,-5117.22 -3961.89,-6960.21 -1706.42,-2340.15 -3072.76,-4158.52 -4589.08,-6316.4 -1476.03,-2100.62 -2997.96,-4613.72 -5620.75,-5315.73 -2862.51,-766.19 -6007.84,2079.72 -5629.69,5015.93z"/>
  </g>
 </g>
</svg>
