<svg width="24578" height="2757" viewBox="0 0 24578 2757" fill="none" xmlns="http://www.w3.org/2000/svg">
<path fill-rule="evenodd" clip-rule="evenodd" d="M15392.5 10.5837C15305.5 23.8914 15219 18.8367 15134 41.6095C15000 77.5266 14940.1 97.9413 14821.3 163.256C14791.2 179.814 14756.5 195.461 14724.5 214.879C14631.3 271.452 14480.4 403.592 14416.3 485.739C14369.9 545.159 14320.3 598.312 14291 653.342C14208 809.186 14160.1 886.434 14121.6 1066.52C14067.2 1321.2 14083.8 1589.23 14164.1 1832.75C14187.8 1904.57 14225 1964.65 14257.5 2030.57C14305.9 2128.74 14425.9 2292.4 14509.1 2363.59C14652.9 2486.58 14667.5 2506.52 14853.3 2603.84C15071.3 2718.01 15324.6 2755.41 15572.7 2736.81C15715.5 2726.11 15691.8 2729.21 15819.6 2689.26C15979.3 2639.33 16099.2 2591.46 16214.8 2504.95C16272.2 2461.97 16332.7 2423.05 16378.9 2376.61C16495.5 2259.42 16541.3 2196.34 16633.5 2052.5C16693.6 1958.74 16767.5 1743.67 16791.4 1624.04C16811.7 1522.89 16810.4 1460.42 16746.4 1399.94C16695.4 1351.84 16604 1334.97 16538.9 1395.14C16459.6 1468.46 16456.9 1605.64 16417.9 1710.92C16369.9 1840.54 16348.5 1884.41 16264.7 1998.17C16111.7 2205.58 15841.4 2385.04 15512 2405.65C15209.9 2424.54 14873.5 2292.76 14688.5 2068.11C14638.4 2007.14 14604.1 1971.15 14567.2 1903.05C14438.2 1664.68 14398.2 1474.5 14439.5 1183.96C14459.4 1044.44 14546.3 862.177 14613.9 771.614C14799.7 522.829 15041.2 378.892 15355.4 347.736C15548 328.631 15709 355.435 15857.9 424.886C15925.6 456.453 15984.8 487.869 16041 527.942C16067.4 546.826 16095.1 572.009 16119.7 593.003C16332.6 774.871 16344.1 956.81 16509.5 937.053C16584.5 928.09 16648.7 870.377 16654 792.425C16659.4 711.856 16599.1 641.271 16564.5 589.277C16407 352.406 16167.3 180.029 15903.7 81.6629C15779.8 35.4273 15532.7 -10.8931 15392.5 10.5834L15392.5 10.5837Z" fill="white"/>
<path fill-rule="evenodd" clip-rule="evenodd" d="M5747.2 654.768C5778.2 622.915 5802.7 700.203 5808.12 713.282L5924.28 981.811C5973.73 1101.46 6024.26 1221.68 6077.81 1341.62L6229.56 1702.55C6258.08 1770.28 6282.23 1817.06 6310.76 1881.22C6335.74 1937.42 6358.36 2006.3 6382.86 2062.62C6410.5 2126.17 6435.5 2177.38 6462.63 2242.22C6488.81 2304.79 6509.05 2366.04 6537.81 2425.38C6567.1 2485.81 6592.13 2548.74 6620.58 2601.74C6648.12 2653.03 6701.62 2704.36 6776.12 2701.08C6845.61 2698.02 6902.09 2646.78 6923.51 2590.57C6950.15 2520.64 6911.75 2437.32 6887.5 2384.99C6833.53 2268.52 6790.6 2143.23 6733.61 2025.56C6703.77 1963.93 6683.44 1906.07 6656.79 1844.43L6502.34 1480.21C6480.13 1425.99 6447.71 1358.52 6424.01 1304.35C6397.43 1243.64 6376.03 1183 6349.64 1120.36C6322.91 1056.89 6299.57 1011.53 6271.04 944.721C6245.57 885.1 6224.4 824.507 6195.51 760.372C6167.95 699.193 6143.21 649.688 6117.67 585.116C6071.43 468.243 6017.15 346.401 5963.44 221.087C5935.54 156.007 5919.98 99.3686 5870.64 54.3769C5826.63 14.2516 5753.38 -10.1627 5681.2 28.9141C5600.81 72.4336 5540.11 257.767 5499.81 360.048C5449.67 487.271 5395.67 596.489 5347.64 721.015C5299.21 846.602 5246.11 970.288 5197.1 1089.46L4969.16 1633.25C4940.82 1698.39 4922.06 1755.11 4897.41 1814.24C4871.17 1877.21 4845.02 1928.94 4818.09 1993.83C4790.65 2059.95 4772.18 2114.27 4745.39 2176.18C4706.73 2265.5 4600.61 2474.5 4631.22 2569.15C4678.51 2715.4 4856.1 2687.92 5022.18 2687.92C5362.95 2687.92 5707.97 2693.17 6048.15 2687.69C6131.6 2686.34 6192.51 2667.55 6229.89 2612.55C6269.48 2554.3 6266.89 2473.24 6221.36 2417.09C6179.01 2364.85 6118.04 2352.03 6025.92 2351.9L5259.33 2350.03C5135.5 2350.48 5047.26 2371.82 5067.53 2288.35C5085.87 2212.83 5188.94 1993.9 5215.21 1923.12C5238.82 1859.51 5261.21 1798.5 5288.29 1737.46C5317.97 1670.57 5341.18 1618.25 5367.6 1556.31C5392.22 1498.58 5412.71 1432.08 5438.91 1374.02C5493.17 1253.77 5539.07 1132.38 5591.69 1015.54C5620.1 952.466 5643.05 899.346 5668.1 831.973C5685.95 783.932 5720.74 681.945 5747.2 654.769V654.768Z" fill="white"/>
<path fill-rule="evenodd" clip-rule="evenodd" d="M23625.6 351.202C23792.4 315.773 23922.7 371.402 24020.3 463.162C24158.8 593.427 24134.6 715.602 24170.4 825.413C24216.9 967.904 24430.7 970.321 24475.8 821.452C24514.9 692.471 24447.5 503.034 24394.7 408.355C24270.2 185.489 24045.6 18.3943 23768.3 6.7543C23128.6 -20.0958 22768.8 629.273 23041.8 1143.13C23093.3 1239.96 23200.8 1339.53 23303.8 1400.17C23430.5 1474.68 23529.5 1493.05 23677.9 1538.21C23831 1584.82 23919.7 1597.83 24057.8 1677.44C24164.5 1739.02 24249.2 1844.54 24238.2 2011.62C24228.8 2154.85 24155.1 2260.9 24042.8 2330.04C23808.3 2474.44 23480.6 2435.49 23268.9 2240.38C23149.1 2129.88 23152.9 1994.06 23112.6 1885.04C23057 1734.41 22876.3 1735.57 22812.7 1871.99C22763.3 1977.91 22849.7 2200.89 22888 2278.39C22974.3 2452.97 23117.5 2574.14 23291.2 2654.66C23353.8 2683.68 23402.3 2705.93 23474.7 2724.52C23748.9 2795 24082.5 2725.96 24298 2563.37C24617.8 2322.08 24689.9 1809.92 24375.6 1497.46C24300.9 1423.22 24174.6 1345.57 24056.5 1302.69C23875.3 1236.91 23599.8 1185.55 23476.5 1105.96C23425.8 1073.23 23374.3 1037.95 23341.8 986.677C23214 784.806 23312.7 417.69 23625.6 351.203V351.202Z" fill="white"/>
<path fill-rule="evenodd" clip-rule="evenodd" d="M860.829 346.329C1024.78 321.14 1154.58 384.937 1236.99 474.666C1375.03 624.948 1343.36 755.798 1383.65 841.606C1446.98 976.449 1652.36 958.497 1685.1 807.681C1716.97 660.891 1642.18 486.481 1589.95 392.454C1476.7 188.608 1246.93 13.5475 946.552 7.15719C710.365 2.13507 539.883 83.8777 388.755 223.946C354.068 256.092 300.765 315.512 273.563 362.718C203.813 483.759 155.922 599.817 154.757 765.068C153.603 929.094 192.706 1055.86 264.776 1171.75C328.834 1274.75 436.43 1359.84 535.285 1413.76C600.606 1449.38 642.483 1467.06 718.95 1490.09C781.373 1508.9 848.557 1529.22 914.543 1548.54C1054.88 1589.64 1157.89 1610.34 1283.87 1690.95C1412.17 1773.06 1458.2 1894.63 1437.16 2049.15C1394.86 2359.79 1058.59 2445.23 787.346 2403.95C665.829 2385.46 519.358 2298.54 452.643 2218.61C318.359 2057.73 351.039 1940.8 305.247 1854C209.883 1673.25 -187.255 1764.31 106.43 2305.36C218.325 2511.5 450.838 2674.69 707.785 2729.68C853.918 2760.96 1034.37 2752.91 1181.66 2719.85C1287.96 2695.99 1449.44 2606.77 1522.39 2548.82C1737.4 2378.02 1820.11 2057.26 1750.4 1791.17C1691.27 1565.44 1574.63 1470.28 1403.56 1366.72C1331.97 1323.39 1120.16 1251.79 1029.59 1227.33C965.397 1210 893.691 1191.15 829.895 1172.95C720.826 1141.84 579.943 1057.78 530.797 960.719C462.551 825.953 482.796 675.013 552.429 552.663C586.66 492.514 623.737 458.511 677.073 418.607C735.431 374.938 784.5 358.061 860.829 346.329L860.829 346.329Z" fill="white"/>
<path fill-rule="evenodd" clip-rule="evenodd" d="M7629.09 208.046C7659.89 326.801 7771.5 339.555 7867.97 339.561L8634.57 339.568C8753.22 339.555 8872.59 337.523 8966.9 388.266C9040.34 427.773 9127.97 500.852 9167.55 573.749C9264.27 751.858 9251.04 999.028 9105.87 1148.12C8932.3 1326.38 8726.62 1304.87 8491.17 1301.12C8363.56 1299.08 8238 1301.94 8110.63 1301.73C7998.9 1301.56 7847.54 1284.17 7766.08 1341.8C7679.44 1403.09 7695.85 1529.18 7696.6 1653C7698.14 1908.5 7695.11 2164.21 7696.57 2419.6C7698.06 2680.82 7907.37 2676.44 7988.45 2578.76C8018.72 2542.3 8029.47 2496.22 8032.02 2436.36C8036.91 2321.9 8021.02 1722.47 8037.95 1673.33C8055.95 1621.07 8140.2 1636.14 8193.36 1636.66C8257.9 1637.28 8321.93 1635.36 8386.39 1634.84C8710.98 1632.2 8947.38 1671.06 9205.76 1496.04C9416.27 1353.46 9519.22 1182.68 9566.38 908.023C9602.45 697.963 9500.56 446.514 9398.77 320.711C9280.76 174.871 9141.56 72.8444 8929.3 24.5828C8785.08 -8.21433 8355.54 3.57561 8182.33 3.57561C8063.65 3.58245 7919.61 -3.88946 7804.33 5.2169C7738.81 10.3955 7702.57 23.5994 7667.35 62.5065C7635.94 97.1995 7614.4 151.376 7629.09 208.047V208.046Z" fill="white"/>
<path fill-rule="evenodd" clip-rule="evenodd" d="M10488.7 2491.29C10508.7 2680.53 10682 2658.02 10857.1 2658.02C11035.5 2658 11213.8 2658.01 11392.1 2658.01C11567.6 2658.01 11753 2663.76 11927.2 2656.96C12016.2 2653.5 12072.2 2624.72 12101.1 2560.82C12137.9 2479.42 12105.1 2409.42 12056.2 2367.46C11998.8 2318.28 11910.5 2323.72 11827.8 2323.73C11739.5 2323.74 11651.3 2324.56 11563.1 2323.82C11384.7 2322.32 11206.4 2324.29 11028.1 2324.27C10919.6 2324.26 10828.4 2344.79 10821.3 2265.22C10812.8 2169.7 10822 1600.89 10821.6 1471C10821 1325.33 10831.5 221.862 10812.4 138.484C10776.7 -16.7683 10570.4 -38.2506 10505.3 109.953C10477.5 173.307 10485.7 279.392 10485.7 356.953L10485.7 1961.84C10485.7 2050.09 10486.2 2138.3 10486.1 2226.57C10486.1 2306.38 10480.6 2414.58 10488.7 2491.29V2491.29Z" fill="white"/>
<path fill-rule="evenodd" clip-rule="evenodd" d="M18024.3 2507.84C18035.6 2404.42 18026.4 2243.94 18026.4 2132.81V246.647C18026.1 186.342 18021.9 133.078 17996.9 88.4706C17922.7 -44.3541 17705.7 -7.80477 17688.2 181.066C17677.9 292.153 17685.9 445.594 17685.9 561.007L17686.3 2447.17C17686.4 2560.9 17717.8 2660.77 17824.4 2684.28C17949.6 2711.87 18012.5 2616.1 18024.3 2507.84V2507.84Z" fill="white"/>
<path fill-rule="evenodd" clip-rule="evenodd" d="M12992.4 15.0196C12882.8 53.0216 12867.7 130.901 12866.6 263.192L12866.7 1393.79C12868.9 1641.43 12870.5 1896.5 12866 2143.84C12864 2255.19 12857.9 2407.97 12868.9 2516.03C12889.8 2721.04 13109 2739.2 13179.8 2597.26C13205.9 2545.1 13201.8 2490.58 13201.9 2430.62L13202.3 549.979C13202.3 432.671 13209.7 288.798 13200 174.642C13191.6 77.4942 13104.1 -23.6988 12992.4 15.02V15.0196Z" fill="white"/>
<path fill-rule="evenodd" clip-rule="evenodd" d="M19434.1 13.939C19319.7 38.0076 19301.7 130.205 19300.6 257.682C19299.6 382.142 19297.7 508.408 19298.4 632.706L19301 2138.33C19301 2251.75 19291.7 2401.94 19302.7 2510.65C19313.2 2614.59 19381.4 2713.4 19501.3 2685.26C19547.8 2674.35 19584.7 2643.17 19606.9 2604.11C19635.1 2554.47 19633.9 2511.77 19634 2441.66L19634 1311.06C19634 1061.31 19637.1 810.554 19635.3 561.007C19634.4 438.364 19639 307.142 19632.8 185.768C19627.4 78.7843 19545.5 -9.492 19434.1 13.9386L19434.1 13.939Z" fill="white"/>
<path fill-rule="evenodd" clip-rule="evenodd" d="M3296.36 2590.56C3319.93 2793.95 3579.13 2818.45 3626.24 2616.12C3642.1 2548.02 3633.77 2389.53 3634.19 2309.29C3635.02 2151.59 3639.49 808.45 3630.98 739.201C3603.43 515.116 3341.63 523.969 3301.14 710.201C3286.44 777.808 3293.99 940.024 3294.51 1018.76C3295.72 1201.99 3287.75 2516.36 3296.36 2590.56V2590.56Z" fill="white"/>
<path fill-rule="evenodd" clip-rule="evenodd" d="M21330.5 576.289C21232.5 596.163 21202.7 653.381 21192.9 757.036C21184.4 847.521 21190.3 971.246 21190.3 1068.4C21190.3 1278.06 21191.6 1487.52 21191.6 1697.12C21191.6 1906.13 21187.8 2117.29 21190.5 2325.84C21191.4 2393.2 21187.6 2574.85 21201.9 2632.09C21242.7 2795.67 21509.5 2819.69 21525.8 2572.52C21532 2477.07 21529.7 2356.57 21528.3 2259.66C21525.2 2050.93 21524.9 1839.71 21526.9 1630.94C21528.9 1421.39 21526.8 1211.86 21526.7 1002.22C21526.7 924.749 21534.5 761.133 21519.8 695.929C21502.7 620.466 21427.3 556.662 21330.5 576.289V576.289Z" fill="white"/>
<path fill-rule="evenodd" clip-rule="evenodd" d="M20556.9 6.36297C20346.7 41.3812 20353.2 249.715 20488.7 315.89C20573.2 357.194 20911.3 339.138 21032.5 339.138L21881.8 339.47C22047.5 337.887 22278.4 378.547 22323.7 214.755C22347.1 130.336 22301.6 54.7871 22235.8 24.9604C22152.5 -12.8202 21809.5 3.50379 21688.8 3.53631L20839.5 3.2303C20765.6 2.62444 20621.4 -4.37134 20556.9 6.36365V6.36297Z" fill="white"/>
<path fill-rule="evenodd" clip-rule="evenodd" d="M2981.59 339.568L4178.37 339.939C4239.56 340.623 4303.8 338.291 4348.36 311.617C4450.83 250.282 4451.64 108.24 4366.65 41.7462C4308.51 -3.74007 4212.19 3.06677 4134.25 3.6141L2821.66 3.15132C2731.77 3.15782 2636.63 -6.14399 2571.52 34.7436C2454.22 108.396 2467.13 332.461 2694.59 338.942C2788.61 341.619 2887.12 339.567 2981.59 339.567L2981.59 339.568Z" fill="white"/>
<path fill-rule="evenodd" clip-rule="evenodd" d="M18309.5 1183.81C18209.1 1197.64 18131.9 1244.65 18131.5 1355.21C18131.2 1457.86 18219.3 1506.86 18319.1 1513.36L19018.5 1512.65C19259.7 1490.96 19238.5 1190.22 19003.1 1181.32C18914.5 1177.98 18369.8 1175.49 18309.5 1183.81Z" fill="white"/>
<path fill-rule="evenodd" clip-rule="evenodd" d="M15356.6 1164.92C15265.2 1180.06 15192 1247.72 15205.6 1348.61C15219 1447.68 15293.8 1486.23 15403.1 1492.54C15486.8 1497.38 16018.2 1500.02 16079.1 1491.05C16288.2 1460.26 16298.7 1169.03 16030.3 1160.4C15942.3 1157.57 15412.4 1155.67 15356.6 1164.92Z" fill="white"/>
<path fill-rule="evenodd" clip-rule="evenodd" d="M8815.73 1989.42C8825.33 2063.89 9051.42 2365.57 9118.75 2448.33C9174.07 2516.33 9218.56 2610.82 9311.31 2635.41C9417.28 2663.51 9515.79 2571.23 9507.13 2463.46C9500.24 2377.78 9415.72 2284.78 9368.79 2220.43C9309.21 2138.72 9261.5 2075.23 9208.56 1999.89C9157.02 1926.54 9103.88 1838.79 9012.3 1814.28C8912.35 1787.53 8802.53 1886.9 8815.73 1989.42V1989.42Z" fill="white"/>
</svg>
